<?xml version="1.0" encoding="UTF-8" standalone="no"?>
<!-- Created with Inkscape (http://www.inkscape.org/) -->

<svg
   xmlns:dc="http://purl.org/dc/elements/1.1/"
   xmlns:cc="http://creativecommons.org/ns#"
   xmlns:rdf="http://www.w3.org/1999/02/22-rdf-syntax-ns#"
   xmlns:svg="http://www.w3.org/2000/svg"
   xmlns="http://www.w3.org/2000/svg"
   xmlns:sodipodi="http://sodipodi.sourceforge.net/DTD/sodipodi-0.dtd"
   xmlns:inkscape="http://www.inkscape.org/namespaces/inkscape"
   width="350"
   height="350"
   id="svg3424"
   version="1.1"
   inkscape:version="0.48.4 r9943 custom"
   sodipodi:docname="galinho.svg">
  <defs
     id="defs3426" />
  <sodipodi:namedview
     id="base"
     pagecolor="#ffffff"
     bordercolor="#666666"
     borderopacity="1.0"
     inkscape:pageopacity="0"
     inkscape:pageshadow="2"
     inkscape:zoom="1.5028571"
     inkscape:cx="149.71483"
     inkscape:cy="175"
     inkscape:document-units="px"
     inkscape:current-layer="layer1"
     showgrid="false"
     inkscape:window-width="1183"
     inkscape:window-height="693"
     inkscape:window-x="46"
     inkscape:window-y="22"
     inkscape:window-maximized="0" />
  <metadata
     id="metadata3429">
    <rdf:RDF>
      <cc:Work
         rdf:about="">
        <dc:format>image/svg+xml</dc:format>
        <dc:type
           rdf:resource="http://purl.org/dc/dcmitype/StillImage" />
        <dc:title></dc:title>
      </cc:Work>
    </rdf:RDF>
  </metadata>
  <g
     inkscape:label="Layer 1"
     inkscape:groupmode="layer"
     id="layer1"
     transform="translate(0,-702.3622)">
    <path
       sodipodi:type="arc"
       style="fill:#ffffff;stroke:none;stroke-opacity:1;fill-opacity:1"
       id="path3032"
       sodipodi:cx="186.97719"
       sodipodi:cy="199.61977"
       sodipodi:rx="151.71103"
       sodipodi:ry="151.71103"
       d="m 338.68822,199.61977 a 151.71103,151.71103 0 1 1 -303.422061,0 151.71103,151.71103 0 1 1 303.422061,0 z"
       transform="matrix(1.1462083,0,0,1.1462083,-39.314805,648.55637)" />
    <g
       id="g3034"
       transform="matrix(0.67102873,0,0,0.5636974,-66.493569,702.6126)"
       inkscape:export-xdpi="90"
       inkscape:export-ydpi="90">
      <path
         id="path3171"
         d="M 420.6875,222.78125 406,312.125 l 42.21875,43.40625 13.65625,-132.75 -41.1875,0 z"
         style="fill:#27963c;fill-opacity:1;fill-rule:nonzero;stroke:none"
         inkscape:connector-curvature="0" />
      <path
         id="path3177"
         d="m 442.21875,100.28125 c -8.90961,0.0649 -19.24479,1.52 -31.15625,4.625 -69.33567,18.07498 -44.92379,84.85267 -33.78125,108.5 -6.60815,-19.21466 -14.55137,-61.13143 40.46875,-64.21875 45.44497,-2.54965 44.4351,27.30617 37.65625,49.4375 l 25.75,-0.40625 c 16.77285,-46.62002 15.51014,-98.333839 -38.9375,-97.9375 z m -59,80.6875 c -4.63645,11.70811 -3.82848,27.29918 -2.375,39.53125 0.44386,0.81383 0.71875,1.3125 0.71875,1.3125 -1.56727,-12.15633 -2.78979,-28.4781 1.65625,-40.84375 z"
         style="fill:#b32023;fill-opacity:1;fill-rule:nonzero;stroke:none"
         inkscape:connector-curvature="0" />
      <path
         id="path3175"
         d="m 449.0625,52.78125 c -15.79088,0.177558 -33.59041,4.751328 -53.09375,15.125 C 277.09125,131.135 381.125,222.9375 381.125,222.9375 c 0,0 -55.20375,-94.825 29.5,-116.90625 84.70375,-22.08 89.61125,39.0325 70.09375,93.28125 l 16.21875,-0.25 C 558.06125,164.53828 529.52081,51.876548 449.0625,52.78125 z"
         style="fill:#ed1e24;fill-opacity:1;fill-rule:nonzero;stroke:none"
         inkscape:connector-curvature="0" />
      <path
         id="path3181"
         d="m 242.15625,230.875 c -34.03133,-0.0349 -68.05934,20.15068 -86.0625,59.9375 -28.10125,62.10625 16.06375,120.34625 50.1875,128.375 0,0 -93.46475,-94.935 -7.75,-134.5 C 275.0875,249.35125 318.8775,316.75375 316,359.625 L 318.4375,357 c 0,0 20.54375,-73.315 -21.84375,-106.84375 -16.27025,-12.87057 -35.34676,-19.26166 -54.4375,-19.28125 z m -4.09375,123.90625 c 0.73313,0.0116 1.47867,0.0236 2.1875,0.0625 -0.7176,-0.0395 -1.44499,-0.0509 -2.1875,-0.0625 z m 2.1875,0.0625 c 0.90139,0.0494 1.76226,0.12504 2.625,0.21875 -0.8608,-0.0937 -1.72571,-0.16919 -2.625,-0.21875 z m 10.6875,1.9375 c 0.46367,0.15375 0.92541,0.29702 1.375,0.46875 -0.44806,-0.17137 -0.91295,-0.31525 -1.375,-0.46875 z m 1.5,0.5 c 0.60785,0.23502 1.19888,0.48175 1.78125,0.75 -0.5771,-0.2657 -1.17913,-0.51693 -1.78125,-0.75 z m 4.84375,2.40625 c 0.31526,0.19337 0.63063,0.38876 0.9375,0.59375 -0.30791,-0.20591 -0.62114,-0.39955 -0.9375,-0.59375 z M 258.5,360.5 c 0.54139,0.3715 1.07844,0.74772 1.59375,1.15625 -0.51474,-0.40844 -1.05297,-0.78478 -1.59375,-1.15625 z m 1.625,1.1875 c 0.53244,0.42345 1.05741,0.8492 1.5625,1.3125 -0.50324,-0.46177 -1.0321,-0.89031 -1.5625,-1.3125 z m 6.46875,7.09375 c 0.33805,0.49973 0.67873,1.0039 1,1.53125 -0.32033,-0.52556 -0.663,-1.03313 -1,-1.53125 z m 1,1.53125 c 0.38189,0.62686 0.76635,1.2714 1.125,1.9375 -0.35986,-0.6683 -0.74175,-1.30869 -1.125,-1.9375 z m 1.4375,2.53125 c 0.32768,0.63097 0.62941,1.27227 0.9375,1.9375 -0.30696,-0.66238 -0.61111,-1.3091 -0.9375,-1.9375 z m 0.9375,1.9375 c 0.3681,0.7948 0.7217,1.62477 1.0625,2.46875 -0.34285,-0.84923 -0.69202,-1.66931 -1.0625,-2.46875 z M 273.75,385.5 c 0.26316,0.99335 0.51131,2.01875 0.75,3.0625 -0.23949,-1.04662 -0.4859,-2.06657 -0.75,-3.0625 z m 6.59375,12.96875 c -1.24625,0.585 -2.50875,1.1625 -3.78125,1.71875 -0.0688,-0.52372 -0.14588,-1.01705 -0.21875,-1.53125 0.16956,1.19678 0.32082,2.40785 0.46875,3.65625 l 3.53125,-3.84375 z"
         style="fill:#1c6434;fill-opacity:1;fill-rule:nonzero;stroke:none"
         inkscape:connector-curvature="0" />
      <path
         id="path3183"
         d="m 238.0625,274.25 c -11.95907,0.24024 -25.1457,3.24945 -39.5,9.875 -79.48388,36.68889 -5.01298,120.84525 6.25,132.90625 -8.98661,-13.28572 -57.27934,-90.28874 30.46875,-92 52.80667,-1.03002 63.72927,27.53655 62.875,53.46875 l 17.875,-19.4375 C 318.36922,324.22962 289.88514,273.20897 238.0625,274.25 z m -40.46875,110.8125 c 0.2295,14.78666 6.69528,29.77001 8.15625,32.96875 0.19537,0.20306 0.53125,0.5625 0.53125,0.5625 0,0 -8.25106,-17.11246 -8.6875,-33.53125 z"
         style="fill:#27963c;fill-opacity:1;fill-rule:nonzero;stroke:none"
         inkscape:connector-curvature="0" />
      <path
         d="M 486.09,195.63875 572.60875,222.87 486.0975,222.9275 486.09,195.63875"
         id="path3187"
         style="fill:#63c431;fill-opacity:1;fill-rule:nonzero;stroke:none"
         inkscape:connector-curvature="0" />
      <path
         d="m 486.0575,250.1525 86.55125,-27.2825 -86.51125,-0.007 -0.04,27.29"
         id="path3189"
         style="fill:#27963c;fill-opacity:1;fill-rule:nonzero;stroke:none"
         inkscape:connector-curvature="0" />
      <path
         d="m 351.6475,567.23625 58.97612,0 0,-126.76375 -58.97612,0 0,126.76375 z"
         id="path3191"
         style="fill:#b32023;fill-opacity:1;fill-rule:nonzero;stroke:none"
         inkscape:connector-curvature="0" />
      <path
         d="m 351.6475,511.75125 0,55.485 58.97625,0 0,-63.38125 -58.97625,7.89625"
         id="path3193"
         style="fill:#ed1e24;fill-opacity:1;fill-rule:nonzero;stroke:none"
         inkscape:connector-curvature="0" />
      <path
         d="m 449.59,567.23625 c -3.32625,-24.63 -31.41375,-43.8625 -65.575,-43.8625 -34.16,0 -62.24875,19.2325 -65.57375,43.8625 l 131.14875,0"
         id="path3195"
         style="fill:#27963c;fill-opacity:1;fill-rule:nonzero;stroke:none"
         inkscape:connector-curvature="0" />
      <path
         d="m 382.79,567.23625 66.8,0 c -3.32625,-24.63 -31.41375,-43.8625 -65.575,-43.8625 -0.4125,0 -0.81375,0.0375 -1.225,0.0425 l 0,43.82"
         id="path3197"
         style="fill:#1c6434;fill-opacity:1;fill-rule:nonzero;stroke:none"
         inkscape:connector-curvature="0" />
      <path
         d="m 217.36722,356.29431 c 38.1375,-8.06875 53.7625,5.3725 58.49625,45.32125 l 21.34,-23.23625 c 1.03125,-26.08 -9.675,-55.08501 -62.865,-54.04751 -96.01625,1.8725 -29.01625,94.14876 -29.01625,94.14876 0,0 -26.095,-54.1175 12.045,-62.18625"
         id="path3185"
         style="fill:#63c431;fill-opacity:1;fill-rule:nonzero;stroke:none"
         inkscape:connector-curvature="0" />
      <path
         d="m 444.52197,357.06664 45.7325,47.03125 9.1525,-179.78626 -41.225,0 -13.66,132.75501"
         id="path3173"
         style="fill:#1c6434;fill-opacity:1;fill-rule:nonzero;stroke:none"
         inkscape:connector-curvature="0" />
      <path
         d="m 276.8175,402.30875 c 0,0.0838 0.004,0.16625 0.004,0.24875 l 214.38875,0 c 0,-0.0825 0.002,-0.165 0.002,-0.24875 0,-50.1975 -47.99375,-90.89125 -107.1975,-90.89125 -59.20375,0 -107.1975,40.69375 -107.1975,90.89125"
         id="path3199"
         style="fill:#39393a;fill-opacity:1;fill-rule:nonzero;stroke:none"
         inkscape:connector-curvature="0" />
      <path
         d="m 518.49625,260.26875 c 0,16.235 -6.8975,29.395 -15.405,29.395 -8.50875,0 -15.40625,-13.16 -15.40625,-29.395 0,-16.23375 6.8975,-29.39375 15.40625,-29.39375 8.5075,0 15.405,13.16 15.405,29.39375"
         id="path3201"
         style="fill:#ed1e24;fill-opacity:1;fill-rule:nonzero;stroke:none"
         inkscape:connector-curvature="0" />
      <path
         d="m 405.69764,164.28897 c 26.095,-2.0075 20.1675,35.97625 20.1675,35.97625 l 28.90625,-0.4775 c 7.07875,-22.2275 8.885,-53.14625 -37.32375,-50.55375 -71.5525,4.015 -36.6175,73.735 -36.6175,73.735 -2.78625,-21.61125 -4.56375,-56.41625 24.8675,-58.68"
         id="path3179"
         style="fill:#7c161a;fill-opacity:1;fill-rule:nonzero;stroke:none"
         inkscape:connector-curvature="0" />
      <path
         d="m 461.87625,268.26 c -22.7625,0 -41.215,-20.31125 -41.215,-45.365 0,-25.0525 18.4525,-45.36375 41.215,-45.36375 22.76375,0 41.21625,20.31125 41.21625,45.36375 0,25.05375 -18.4525,45.365 -41.21625,45.365"
         id="path3203"
         style="fill:#39393a;fill-opacity:1;fill-rule:nonzero;stroke:none"
         inkscape:connector-curvature="0" />
      <path
         d="m 276.8175,402.30875 -35.41375,78.0875 c 0,0 219.03,19.9625 252.535,-77.83875 L 276.8175,402.30875"
         id="path3205"
         style="fill:#21201f;fill-opacity:1;fill-rule:nonzero;stroke:none"
         inkscape:connector-curvature="0" />
      <path
         d="m 382.88375,385.26625 c 0,0 12.9925,-48.54875 -26.15125,-34.805 C 317.59,364.205 344.45125,423.7 344.45125,423.7 c 0,0 59.49375,26.86 73.23875,-12.2825 13.74375,-39.1425 -34.80625,-26.15125 -34.80625,-26.15125"
         id="path3207"
         style="fill:#ed1e24;fill-opacity:1;fill-rule:nonzero;stroke:none"
         inkscape:connector-curvature="0" />
      <path
         d="m 394.17375,372.03625 -0.0925,2.0325 2.0325,-0.0913 c 1.86625,-0.085 3.685,-0.09 5.40875,-0.0163 l 0.16,-3.7125 c -1.2075,-0.0512 -2.45875,-0.0662 -3.735,-0.045 0.0213,-1.2775 0.005,-2.5275 -0.0462,-3.73625 l -3.71125,0.16 c 0.0738,1.72375 0.0688,3.54375 -0.0163,5.40875"
         id="path3209"
         style="fill:#ffffff;fill-opacity:1;fill-rule:nonzero;stroke:none"
         inkscape:connector-curvature="0" />
      <path
         d="m 326.105,363.17875 c -1.3075,3.34875 -2.27625,6.985 -2.88,10.80875 l 3.67,0.57875 c 0.5625,-3.55875 1.46125,-6.935 2.67125,-10.035 l -3.46125,-1.3525"
         id="path3211"
         style="fill:#ffffff;fill-opacity:1;fill-rule:nonzero;stroke:none"
         inkscape:connector-curvature="0" />
      <path
         d="m 380.4075,341.20375 1.635,-3.3375 c -3.32625,-1.62875 -7.07125,-2.565 -11.12875,-2.78375 l -0.19875,3.71125 c 3.55625,0.19125 6.8175,1.00125 9.6925,2.41"
         id="path3213"
         style="fill:#ffffff;fill-opacity:1;fill-rule:nonzero;stroke:none"
         inkscape:connector-curvature="0" />
      <path
         d="m 322.44875,385.0625 c 0.0325,3.5025 0.31,7.205 0.82625,11.0025 l 3.6825,-0.5 c -0.495,-3.645 -0.7625,-7.19 -0.7925,-10.5375 l -3.71625,0.035"
         id="path3215"
         style="fill:#ffffff;fill-opacity:1;fill-rule:nonzero;stroke:none"
         inkscape:connector-curvature="0" />
      <path
         d="m 325.29375,406.86 c 0.815,3.46375 1.80625,7.01625 2.9475,10.55625 l 3.53625,-1.14 c -1.11,-3.445 -2.075,-6.9 -2.86625,-10.2675 l -3.6175,0.85125"
         id="path3217"
         style="fill:#ffffff;fill-opacity:1;fill-rule:nonzero;stroke:none"
         inkscape:connector-curvature="0" />
      <path
         d="m 338.165,351.245 c 1.0925,-1.0925 2.2725,-2.13375 3.505,-3.09375 L 339.38625,345.22 c -1.3525,1.05375 -2.6475,2.19625 -3.84875,3.39875 -1.4525,1.45125 -2.80625,3.02625 -4.025,4.68125 l 2.9925,2.2025 c 1.1075,-1.505 2.34,-2.9375 3.66,-4.2575"
         id="path3219"
         style="fill:#ffffff;fill-opacity:1;fill-rule:nonzero;stroke:none"
         inkscape:connector-curvature="0" />
      <path
         d="m 425.21875,417.64375 3.405,1.485 c 0.48125,-1.10125 0.93,-2.24625 1.33625,-3.4025 0.8675,-2.47 1.565,-4.8975 2.07375,-7.21375 L 428.405,407.715 c -0.4775,2.17 -1.13375,4.45125 -1.95125,6.78 -0.37625,1.07125 -0.79125,2.13 -1.235,3.14875"
         id="path3221"
         style="fill:#ffffff;fill-opacity:1;fill-rule:nonzero;stroke:none"
         inkscape:connector-curvature="0" />
      <path
         d="m 353.655,341.69625 c 2.3475,-0.82375 4.645,-1.48375 6.83,-1.96125 l -0.7925,-3.62875 c -2.3325,0.50875 -4.77875,1.21125 -7.2675,2.085 -1.14,0.4 -2.2675,0.8425 -3.35375,1.315 l 1.4825,3.40625 c 1.00375,-0.43625 2.0475,-0.845 3.10125,-1.21625"
         id="path3223"
         style="fill:#ffffff;fill-opacity:1;fill-rule:nonzero;stroke:none"
         inkscape:connector-curvature="0" />
      <path
         d="m 351.82625,436.3575 -1.14125,3.53625 c 3.5375,1.14125 7.08875,2.135 10.555,2.95125 l 0.85125,-3.6175 c -3.36875,-0.7925 -6.8225,-1.75875 -10.265,-2.87"
         id="path3225"
         style="fill:#ffffff;fill-opacity:1;fill-rule:nonzero;stroke:none"
         inkscape:connector-curvature="0" />
      <path
         d="m 393.53375,441.265 0.5775,3.67 c 3.82375,-0.60125 7.46,-1.56625 10.81,-2.87 l -1.3475,-3.4625 c -3.10125,1.2075 -6.47875,2.1025 -10.04,2.6625"
         id="path3227"
         style="fill:#ffffff;fill-opacity:1;fill-rule:nonzero;stroke:none"
         inkscape:connector-curvature="0" />
      <path
         d="M 422.8975,428.8075 419.97,426.52 c -0.95125,1.21875 -1.9825,2.385 -3.065,3.46625 -1.33125,1.3325 -2.7775,2.5725 -4.29625,3.68875 l 2.19875,2.995 c 1.67125,-1.22625 3.26125,-2.5925 4.725,-4.05625 1.18875,-1.18875 2.32125,-2.47 3.365,-3.80625"
         id="path3229"
         style="fill:#ffffff;fill-opacity:1;fill-rule:nonzero;stroke:none"
         inkscape:connector-curvature="0" />
      <path
         d="m 396.14625,355.3675 c -1.1575,-3.89375 -2.89,-7.33 -5.15,-10.2125 l -2.925,2.2925 c 1.97125,2.51375 3.49,5.53375 4.51375,8.97875 l 3.56125,-1.05875"
         id="path3231"
         style="fill:#ffffff;fill-opacity:1;fill-rule:nonzero;stroke:none"
         inkscape:connector-curvature="0" />
      <path
         d="m 433.07,397.29375 c -0.21,-4.06 -1.14,-7.805 -2.76,-11.13375 l -3.34125,1.62875 c 1.40125,2.87625 2.20625,6.14 2.39,9.6975 l 3.71125,-0.1925"
         id="path3233"
         style="fill:#ffffff;fill-opacity:1;fill-rule:nonzero;stroke:none"
         inkscape:connector-curvature="0" />
      <path
         d="m 340.62875,432.165 c -2.05125,-0.92625 -3.715,-2.5875 -4.645,-4.64625 -0.035,-0.0763 -0.2275,-0.50625 -0.53625,-1.24125 l -3.425,1.4375 c 0.3325,0.79375 0.54125,1.2575 0.57625,1.335 0.64875,1.4375 1.5425,2.73 2.6575,3.845 1.11375,1.115 2.4075,2.00875 3.845,2.6575 0.08,0.0362 0.525,0.235 1.28625,0.55625 l 1.43875,-3.42625 c -0.70875,-0.2975 -1.1225,-0.48375 -1.1975,-0.5175"
         id="path3235"
         style="fill:#ffffff;fill-opacity:1;fill-rule:nonzero;stroke:none"
         inkscape:connector-curvature="0" />
      <path
         d="m 372.535,441.1875 -0.5025,3.68125 c 3.79875,0.5175 7.5,0.7975 11.0025,0.83375 l 0.0375,-3.71625 c -3.3475,-0.0337 -6.89375,-0.3025 -10.5375,-0.79875"
         id="path3237"
         style="fill:#ffffff;fill-opacity:1;fill-rule:nonzero;stroke:none"
         inkscape:connector-curvature="0" />
      <path
         d="m 420.74375,380.11 2.29875,-2.91875 c -2.88,-2.2675 -6.3125,-4.0075 -10.2025,-5.17125 l -1.065,3.56 c 3.44,1.03 6.4575,2.55375 8.96875,4.53"
         id="path3239"
         style="fill:#ffffff;fill-opacity:1;fill-rule:nonzero;stroke:none"
         inkscape:connector-curvature="0" />
      <path
         d="m 382.88375,385.26625 0,0 -38.4325,38.43375 0,0 c 0,0 59.49375,26.86 73.23875,-12.2825 13.74375,-39.1425 -34.80625,-26.15125 -34.80625,-26.15125"
         id="path3241"
         style="fill:#b32023;fill-opacity:1;fill-rule:nonzero;stroke:none"
         inkscape:connector-curvature="0" />
      <path
         d="m 420.66125,222.9275 c 0.0163,25.04 18.4625,45.3325 41.215,45.3325 22.75375,0 41.2,-20.2925 41.21625,-45.3325 l -82.43125,0"
         id="path3243"
         style="fill:#21201f;fill-opacity:1;fill-rule:nonzero;stroke:none"
         inkscape:connector-curvature="0" />
      <path
         d="m 443.0825,241.565 c -10.38,-10.38 -10.38,-27.20875 0,-37.58875 10.37875,-10.37875 27.2075,-10.37875 37.5875,0 10.38,10.38 10.38,27.20875 0,37.58875 -10.38,10.38 -27.20875,10.38 -37.5875,0"
         id="path3245"
         style="fill:#ffffff;fill-opacity:1;fill-rule:nonzero;stroke:none"
         inkscape:connector-curvature="0" />
      <path
         d="m 480.67,241.565 c 0.0188,-0.0175 0.035,-0.0337 0.0525,-0.0513 l -37.58875,-37.5875 c -0.0163,0.0162 -0.035,0.0337 -0.0513,0.05 -10.38,10.38 -10.38,27.20875 0,37.58875 10.37875,10.38 27.2075,10.38 37.5875,0"
         id="path3247"
         style="fill:#fabfca;fill-opacity:1;fill-rule:nonzero;stroke:none"
         inkscape:connector-curvature="0" />
      <path
         d="m 450.42,234.22625 c -6.32625,-6.32625 -6.32625,-16.58375 0,-22.91125 6.3275,-6.32625 16.585,-6.32625 22.91125,0 6.3275,6.3275 6.3275,16.585 0,22.91125 -6.32625,6.3275 -16.58375,6.3275 -22.91125,0"
         id="path3249"
         style="fill:#21201f;fill-opacity:1;fill-rule:nonzero;stroke:none"
         inkscape:connector-curvature="0" />
      <path
         d="m 473.33125,234.22625 c 0.0112,-0.01 0.0213,-0.0212 0.0325,-0.0312 l -22.91125,-22.91 c -0.0112,0.01 -0.02,0.02 -0.0325,0.03 -6.32625,6.3275 -6.32625,16.585 0,22.91125 6.3275,6.3275 16.585,6.3275 22.91125,0"
         id="path3251"
         style="fill:#231f20;fill-opacity:1;fill-rule:nonzero;stroke:none"
         inkscape:connector-curvature="0" />
    </g>
  </g>
</svg>
